<?xml version="1.0" standalone="no"?>
<svg xmlns:xlink="http://www.w3.org/1999/xlink" id="wave" style="transform:rotate(180deg); transition: 0.3s" viewBox="0 0 1440 330" version="1.1" xmlns="http://www.w3.org/2000/svg"><defs><linearGradient id="sw-gradient-0" x1="0" x2="0" y1="1" y2="0"><stop stop-color="rgba(63, 114, 175, 0.8823529411764706)" offset="0%"/><stop stop-color="rgba(63, 114, 175, 0.8823529411764706)" offset="100%"/></linearGradient></defs><path style="transform:translate(0, 0px); opacity:1" fill="url(#sw-gradient-0)" d="M0,264L24,236.5C48,209,96,154,144,126.5C192,99,240,99,288,132C336,165,384,231,432,220C480,209,528,121,576,121C624,121,672,209,720,231C768,253,816,209,864,203.5C912,198,960,231,1008,220C1056,209,1104,154,1152,154C1200,154,1248,209,1296,198C1344,187,1392,110,1440,66C1488,22,1536,11,1584,22C1632,33,1680,66,1728,77C1776,88,1824,77,1872,110C1920,143,1968,220,2016,242C2064,264,2112,231,2160,203.5C2208,176,2256,154,2304,165C2352,176,2400,220,2448,203.5C2496,187,2544,110,2592,104.5C2640,99,2688,165,2736,181.5C2784,198,2832,165,2880,170.5C2928,176,2976,220,3024,225.5C3072,231,3120,198,3168,176C3216,154,3264,143,3312,126.5C3360,110,3408,88,3432,77L3456,66L3456,330L3432,330C3408,330,3360,330,3312,330C3264,330,3216,330,3168,330C3120,330,3072,330,3024,330C2976,330,2928,330,2880,330C2832,330,2784,330,2736,330C2688,330,2640,330,2592,330C2544,330,2496,330,2448,330C2400,330,2352,330,2304,330C2256,330,2208,330,2160,330C2112,330,2064,330,2016,330C1968,330,1920,330,1872,330C1824,330,1776,330,1728,330C1680,330,1632,330,1584,330C1536,330,1488,330,1440,330C1392,330,1344,330,1296,330C1248,330,1200,330,1152,330C1104,330,1056,330,1008,330C960,330,912,330,864,330C816,330,768,330,720,330C672,330,624,330,576,330C528,330,480,330,432,330C384,330,336,330,288,330C240,330,192,330,144,330C96,330,48,330,24,330L0,330Z"/><defs><linearGradient id="sw-gradient-1" x1="0" x2="0" y1="1" y2="0"><stop stop-color="rgba(63, 114, 175, 1)" offset="0%"/><stop stop-color="rgba(63, 114, 175, 1)" offset="100%"/></linearGradient></defs><path style="transform:translate(0, 50px); opacity:0.9" fill="url(#sw-gradient-1)" d="M0,66L24,60.5C48,55,96,44,144,66C192,88,240,143,288,181.5C336,220,384,242,432,231C480,220,528,176,576,165C624,154,672,176,720,159.5C768,143,816,88,864,99C912,110,960,187,1008,220C1056,253,1104,242,1152,236.5C1200,231,1248,231,1296,225.5C1344,220,1392,209,1440,192.5C1488,176,1536,154,1584,137.5C1632,121,1680,110,1728,88C1776,66,1824,33,1872,60.5C1920,88,1968,176,2016,176C2064,176,2112,88,2160,82.5C2208,77,2256,154,2304,154C2352,154,2400,77,2448,88C2496,99,2544,198,2592,203.5C2640,209,2688,121,2736,99C2784,77,2832,121,2880,115.5C2928,110,2976,55,3024,66C3072,77,3120,154,3168,170.5C3216,187,3264,143,3312,126.5C3360,110,3408,121,3432,126.5L3456,132L3456,330L3432,330C3408,330,3360,330,3312,330C3264,330,3216,330,3168,330C3120,330,3072,330,3024,330C2976,330,2928,330,2880,330C2832,330,2784,330,2736,330C2688,330,2640,330,2592,330C2544,330,2496,330,2448,330C2400,330,2352,330,2304,330C2256,330,2208,330,2160,330C2112,330,2064,330,2016,330C1968,330,1920,330,1872,330C1824,330,1776,330,1728,330C1680,330,1632,330,1584,330C1536,330,1488,330,1440,330C1392,330,1344,330,1296,330C1248,330,1200,330,1152,330C1104,330,1056,330,1008,330C960,330,912,330,864,330C816,330,768,330,720,330C672,330,624,330,576,330C528,330,480,330,432,330C384,330,336,330,288,330C240,330,192,330,144,330C96,330,48,330,24,330L0,330Z"/></svg>